<svg width="20" height="20" viewBox="0 0 20 20" fill="none" xmlns="http://www.w3.org/2000/svg">
<g clip-path="url(#clip0_16_1963)">
<path d="M17.3333 9.33333H10.6667V2.66667C10.6667 2.48986 10.5964 2.32029 10.4714 2.19526C10.3464 2.07024 10.1768 2 10 2V2C9.82319 2 9.65362 2.07024 9.5286 2.19526C9.40357 2.32029 9.33333 2.48986 9.33333 2.66667V9.33333H2.66667C2.48986 9.33333 2.32029 9.40357 2.19526 9.5286C2.07024 9.65362 2 9.82319 2 10V10C2 10.1768 2.07024 10.3464 2.19526 10.4714C2.32029 10.5964 2.48986 10.6667 2.66667 10.6667H9.33333V17.3333C9.33333 17.5101 9.40357 17.6797 9.5286 17.8047C9.65362 17.9298 9.82319 18 10 18C10.1768 18 10.3464 17.9298 10.4714 17.8047C10.5964 17.6797 10.6667 17.5101 10.6667 17.3333V10.6667H17.3333C17.5101 10.6667 17.6797 10.5964 17.8047 10.4714C17.9298 10.3464 18 10.1768 18 10C18 9.82319 17.9298 9.65362 17.8047 9.5286C17.6797 9.40357 17.5101 9.33333 17.3333 9.33333Z" fill="white"/>
</g>
<defs>
<clipPath id="clip0_16_1963">
<rect width="16" height="16" fill="white" transform="translate(2 2)"/>
</clipPath>
</defs>
</svg>
