<svg width="20" height="20" viewBox="0 0 20 20" fill="none" xmlns="http://www.w3.org/2000/svg">
<path d="M8 13.9192V6.47121C8.00003 6.33938 8.03914 6.21051 8.1124 6.10091C8.18565 5.9913 8.28976 5.90587 8.41156 5.85543C8.53336 5.80498 8.66738 5.79178 8.79669 5.81749C8.92599 5.8432 9.04476 5.90667 9.138 5.99988L12.862 9.72388C12.987 9.8489 13.0572 10.0184 13.0572 10.1952C13.0572 10.372 12.987 10.5415 12.862 10.6665L9.138 14.3905C9.04476 14.4838 8.92599 14.5472 8.79669 14.5729C8.66738 14.5986 8.53336 14.5854 8.41156 14.535C8.28976 14.4846 8.18565 14.3991 8.1124 14.2895C8.03914 14.1799 8.00003 14.051 8 13.9192Z" fill="#3A5BFF"/>
</svg>
