<svg width="20" height="20" viewBox="0 0 20 20" fill="none" xmlns="http://www.w3.org/2000/svg">
<path d="M10.86 14.3933L7.14003 10.6666C7.01586 10.5417 6.94617 10.3727 6.94617 10.1966C6.94617 10.0205 7.01586 9.85152 7.14003 9.72661L10.86 5.99994C10.9533 5.90593 11.0724 5.84181 11.2022 5.81576C11.3321 5.78971 11.4667 5.80292 11.589 5.8537C11.7113 5.90448 11.8157 5.99052 11.8889 6.10087C11.9621 6.21122 12.0008 6.34086 12 6.47328V13.9199C12.0008 14.0524 11.9621 14.182 11.8889 14.2924C11.8157 14.4027 11.7113 14.4887 11.589 14.5395C11.4667 14.5903 11.3321 14.6035 11.2022 14.5775C11.0724 14.5514 10.9533 14.4873 10.86 14.3933Z" fill="#FFFFFF"/>
</svg>
