<svg width="20" height="20" viewBox="0 0 20 20" fill="none" xmlns="http://www.w3.org/2000/svg">
<path d="M8.71216 15.3333C8.16987 15.3328 7.64994 15.1171 7.26648 14.7337C6.88302 14.3502 6.66736 13.8303 6.66683 13.288C6.66683 13.1112 6.59659 12.9416 6.47157 12.8166C6.34654 12.6916 6.17697 12.6213 6.00016 12.6213C5.82335 12.6213 5.65378 12.6916 5.52876 12.8166C5.40373 12.9416 5.3335 13.1112 5.3335 13.288V13.3333C5.3335 13.346 5.3335 13.3573 5.3335 13.37C5.35574 14.2515 5.7214 15.0895 6.35254 15.7053C6.98367 16.3211 7.83037 16.6661 8.71216 16.6667H9.3335V17.3333C9.3335 17.5101 9.40373 17.6797 9.52876 17.8047C9.65378 17.9298 9.82335 18 10.0002 18C10.177 18 10.3465 17.9298 10.4716 17.8047C10.5966 17.6797 10.6668 17.5101 10.6668 17.3333V16.6667H11.2882C12.09 16.6658 12.8653 16.3798 13.4756 15.8599C14.086 15.3399 14.4915 14.6199 14.6197 13.8284C14.748 13.0369 14.5906 12.2256 14.1756 11.5396C13.7607 10.8535 13.1153 10.3373 12.3548 10.0833L10.6668 9.52V4.66667H11.2882C11.8305 4.6672 12.3504 4.88286 12.7338 5.26632C13.1173 5.64978 13.333 6.16971 13.3335 6.712C13.3335 6.88881 13.4037 7.05838 13.5288 7.1834C13.6538 7.30843 13.8234 7.37867 14.0002 7.37867C14.177 7.37867 14.3465 7.30843 14.4716 7.1834C14.5966 7.05838 14.6668 6.88881 14.6668 6.712V6.66667C14.6668 6.654 14.6668 6.64267 14.6668 6.63C14.6446 5.74849 14.2789 4.91052 13.6478 4.2947C13.0167 3.67889 12.17 3.33392 11.2882 3.33333H10.6668V2.66667C10.6668 2.48986 10.5966 2.32029 10.4716 2.19526C10.3465 2.07024 10.177 2 10.0002 2C9.82335 2 9.65378 2.07024 9.52876 2.19526C9.40373 2.32029 9.3335 2.48986 9.3335 2.66667V3.33333H8.71216C7.91037 3.33419 7.13502 3.62016 6.52469 4.14012C5.91436 4.66008 5.50884 5.38015 5.3806 6.17162C5.25236 6.96308 5.40977 7.77436 5.82469 8.46044C6.23961 9.14652 6.885 9.66268 7.6455 9.91667L9.3335 10.48V15.3333H8.71216ZM10.6668 10.9247L11.9335 11.3473C12.3943 11.5007 12.7856 11.8131 13.0371 12.2285C13.2887 12.644 13.3843 13.1354 13.3066 13.6149C13.229 14.0943 12.9833 14.5305 12.6135 14.8454C12.2437 15.1602 11.7739 15.3332 11.2882 15.3333H10.6668V10.9247ZM8.06683 8.65267C7.60599 8.49929 7.21477 8.18691 6.96319 7.77146C6.7116 7.356 6.61607 6.86457 6.6937 6.38512C6.77132 5.90566 7.01703 5.46948 7.38685 5.15463C7.75667 4.83978 8.22647 4.6668 8.71216 4.66667H9.3335V9.07533L8.06683 8.65267Z" fill="#858D9D"/>
</svg>
