<svg width="20" height="20" viewBox="0 0 20 20" fill="none" xmlns="http://www.w3.org/2000/svg">
<g clip-path="url(#clip0_16_1959)">
<path d="M8.58543 14.0813C9.36624 14.8627 10.6326 14.8631 11.4139 14.0822C11.4142 14.0819 11.4145 14.0817 11.4148 14.0813L13.5554 11.9407C13.8024 11.6676 13.7811 11.246 13.5081 10.9991C13.2538 10.7692 12.8666 10.7696 12.6128 11L10.6621 12.9513L10.6668 2.66669C10.6667 2.29847 10.3683 2 10.0001 2C9.6319 2 9.33343 2.29847 9.33343 2.66666L9.32743 12.9387L7.38743 11C7.12693 10.7397 6.70474 10.7398 6.44443 11.0003C6.18412 11.2608 6.18427 11.683 6.44477 11.9433L8.58543 14.0813Z" fill="#3A5BFF"/>
<path d="M17.3333 12.6666C16.9652 12.6666 16.6667 12.9651 16.6667 13.3333V16C16.6667 16.3682 16.3682 16.6666 16 16.6666H4C3.63181 16.6666 3.33334 16.3682 3.33334 16V13.3333C3.33334 12.9651 3.03487 12.6667 2.66669 12.6667C2.29847 12.6666 2 12.9651 2 13.3333V16C2 17.1045 2.89544 18 4 18H16C17.1046 18 18 17.1045 18 16V13.3333C18 12.9651 17.7015 12.6666 17.3333 12.6666Z" fill="#3A5BFF"/>
</g>
<defs>
<clipPath id="clip0_16_1959">
<rect width="16" height="16" fill="white" transform="translate(2 2)"/>
</clipPath>
</defs>
</svg>
