<svg width="20" height="20" viewBox="0 0 20 20" fill="none" xmlns="http://www.w3.org/2000/svg">
<g clip-path="url(#clip0_16_1987)">
<path d="M2.66751 5.16715H4.49132C4.85129 6.49158 6.21675 7.27344 7.54118 6.91348C8.39181 6.68228 9.05631 6.01779 9.2875 5.16715H17.3327C17.7009 5.16715 17.9993 4.86871 17.9993 4.50056C17.9993 4.13241 17.7009 3.83397 17.3327 3.83397H9.2875C8.92754 2.50951 7.56208 1.72765 6.23765 2.08762C5.38702 2.31881 4.72252 2.98331 4.49132 3.83394H2.66751C2.29935 3.83394 2.00092 4.13238 2.00092 4.50053C2.00092 4.86868 2.29935 5.16715 2.66751 5.16715Z" fill="#858D9D"/>
<path d="M17.3327 9.33374H15.5089C15.1496 8.0095 13.7849 7.2272 12.4607 7.58642C11.6094 7.81736 10.9443 8.48239 10.7134 9.33374H2.66751C2.29935 9.33374 2.00092 9.63218 2.00092 10.0003C2.00092 10.3685 2.29935 10.6669 2.66751 10.6669H10.7134C11.0726 11.9912 12.4373 12.7735 13.7616 12.4143C14.6129 12.1833 15.2779 11.5183 15.5089 10.6669H17.3327C17.7009 10.6669 17.9993 10.3685 17.9993 10.0003C17.9993 9.63218 17.7009 9.33374 17.3327 9.33374Z" fill="#858D9D"/>
<path d="M17.3327 14.8328H9.2875C8.92754 13.5084 7.56208 12.7266 6.23765 13.0865C5.38702 13.3177 4.72252 13.9822 4.49132 14.8328H2.66751C2.29935 14.8328 2.00092 15.1313 2.00092 15.4994C2.00092 15.8676 2.29935 16.166 2.66751 16.166H4.49132C4.85129 17.4904 6.21675 18.2723 7.54118 17.9123C8.39181 17.6811 9.05631 17.0167 9.2875 16.166H17.3327C17.7009 16.166 17.9993 15.8676 17.9993 15.4994C17.9993 15.1313 17.7009 14.8328 17.3327 14.8328Z" fill="#858D9D"/>
</g>
<defs>
<clipPath id="clip0_16_1987">
<rect width="16" height="16" fill="white" transform="translate(2 2)"/>
</clipPath>
</defs>
</svg>
