<svg width="20" height="20" viewBox="0 0 20 20" fill="none" xmlns="http://www.w3.org/2000/svg">
<g clip-path="url(#clip0_16_6564)">
<path d="M10.0001 12.6667C10.7365 12.6667 11.3334 12.0697 11.3334 11.3333C11.3334 10.597 10.7365 10 10.0001 10C9.26371 10 8.66675 10.597 8.66675 11.3333C8.66675 12.0697 9.26371 12.6667 10.0001 12.6667Z" fill="white"/>
<path d="M17.024 4.748L15.252 2.976C15.0747 2.80147 14.8783 2.64741 14.6667 2.51666V4C14.6644 5.84003 13.1733 7.33113 11.3333 7.33334H8.66666C6.82662 7.33113 5.33553 5.84003 5.33334 4V2C3.49331 2.00222 2.00222 3.49331 2 5.33334V14.6667C2.00222 16.5067 3.49331 17.9978 5.33334 18H14.6667C16.5067 17.9978 17.9978 16.5067 18 14.6667V7.10469C18.0025 6.22028 17.651 5.37166 17.024 4.748ZM10 14C8.52725 14 7.33334 12.8061 7.33334 11.3333C7.33334 9.86059 8.52725 8.66669 10 8.66669C11.4727 8.66669 12.6667 9.86059 12.6667 11.3333C12.6667 12.8061 11.4727 14 10 14Z" fill="white"/>
<path d="M8.66675 5.99997H11.3334C12.438 5.99997 13.3334 5.10453 13.3334 3.99997V2.04266C13.1885 2.01903 13.0421 2.00478 12.8954 2H6.66675V4C6.66675 5.10453 7.56218 5.99997 8.66675 5.99997Z" fill="white"/>
</g>
<defs>
<clipPath id="clip0_16_6564">
<rect width="16" height="16" fill="white" transform="translate(2 2)"/>
</clipPath>
</defs>
</svg>
