<svg width="20" height="20" viewBox="0 0 20 20" fill="none" xmlns="http://www.w3.org/2000/svg">
<g clip-path="url(#clip0_16_4738)">
<path d="M10.9425 9.99999L17.8045 3.13799C17.926 3.01225 17.9932 2.84385 17.9916 2.66905C17.9901 2.49425 17.92 2.32705 17.7964 2.20344C17.6728 2.07984 17.5056 2.00972 17.3308 2.0082C17.156 2.00668 16.9876 2.07388 16.8619 2.19532L9.99986 9.05732L3.13786 2.19532C3.01212 2.07388 2.84372 2.00668 2.66892 2.0082C2.49413 2.00972 2.32692 2.07984 2.20331 2.20344C2.07971 2.32705 2.00959 2.49425 2.00807 2.66905C2.00656 2.84385 2.07375 3.01225 2.19519 3.13799L9.05719 9.99999L2.19519 16.862C2.07021 16.987 2 17.1565 2 17.3333C2 17.5101 2.07021 17.6796 2.19519 17.8047C2.32021 17.9296 2.48975 17.9998 2.66652 17.9998C2.8433 17.9998 3.01284 17.9296 3.13786 17.8047L9.99986 10.9427L16.8619 17.8047C16.9869 17.9296 17.1564 17.9998 17.3332 17.9998C17.51 17.9998 17.6795 17.9296 17.8045 17.8047C17.9295 17.6796 17.9997 17.5101 17.9997 17.3333C17.9997 17.1565 17.9295 16.987 17.8045 16.862L10.9425 9.99999Z" fill="#858D9D"/>
</g>
<defs>
<clipPath id="clip0_16_4738">
<rect width="16" height="16" fill="white" transform="translate(2 2)"/>
</clipPath>
</defs>
</svg>
