<svg width="20" height="20" viewBox="0 0 20 20" fill="none" xmlns="http://www.w3.org/2000/svg">
<g clip-path="url(#clip0_48_8076)">
<path d="M17.8045 16.8625L13.8252 12.8831C14.9096 11.5569 15.4428 9.86453 15.3144 8.15617C15.1861 6.44782 14.406 4.85415 13.1356 3.70481C11.8652 2.55547 10.2016 1.93839 8.48895 1.98121C6.77632 2.02404 5.14566 2.72348 3.93426 3.93487C2.72287 5.14627 2.02343 6.77693 1.9806 8.48956C1.93778 10.2022 2.55486 11.8658 3.7042 13.1362C4.85354 14.4066 6.44721 15.1867 8.15556 15.315C9.86392 15.4434 11.5563 14.9102 12.8825 13.8258L16.8619 17.8051C16.9876 17.9266 17.156 17.9938 17.3308 17.9922C17.5056 17.9907 17.6728 17.9206 17.7964 17.797C17.92 17.6734 17.9901 17.5062 17.9916 17.3314C17.9932 17.1566 17.926 16.9882 17.8045 16.8625ZM8.66652 14.0005C7.61169 14.0005 6.58054 13.6877 5.70348 13.1016C4.82642 12.5156 4.14283 11.6826 3.73916 10.7081C3.3355 9.73357 3.22988 8.66122 3.43567 7.62665C3.64145 6.59208 4.14941 5.64178 4.89529 4.8959C5.64117 4.15002 6.59147 3.64206 7.62604 3.43628C8.6606 3.23049 9.73296 3.33611 10.7075 3.73977C11.682 4.14344 12.515 4.82703 13.101 5.70409C13.6871 6.58115 13.9999 7.6123 13.9999 8.66713C13.9983 10.0811 13.4359 11.4368 12.436 12.4366C11.4362 13.4365 10.0805 13.9989 8.66652 14.0005Z" fill="#858D9D"/>
</g>
<defs>
<clipPath id="clip0_48_8076">
<rect width="16" height="16" fill="white" transform="translate(2 2)"/>
</clipPath>
</defs>
</svg>
